<svg width="135" height="40" viewBox="0 0 135 40" fill="none" xmlns="http://www.w3.org/2000/svg">
<circle cx="20" cy="20" r="20" fill="#0066FF"/>
<mask id="mask0_147_1398" style="mask-type:alpha" maskUnits="userSpaceOnUse" x="0" y="0" width="40" height="40">
<circle cx="20" cy="20" r="20" fill="#0066FF"/>
</mask>
<g mask="url(#mask0_147_1398)">
<path d="M22.8978 24.9432C15.17 24.9432 0.0947857 16.2689 -5.34082 11.875V43.9773H45.2842V15.0568C40.2842 18.3144 35.341 24.9432 22.8978 24.9432Z" fill="white" fill-opacity="0.6"/>
<path d="M9.26143 25.1705C3.16984 25.1705 -2.9166 16.6478 -4.31812 11.0796V43.466H44.2614V22.5C43.9773 18.6364 40.7955 11.0796 33.2387 11.0796C23.1251 11.0796 22.0455 25.1705 9.26143 25.1705Z" fill="white" fill-opacity="0.6"/>
</g>
<path d="M134.664 27.3828C134.664 27.9062 134.598 28.375 134.465 28.7891C134.332 29.2109 134.156 29.5781 133.938 29.8906C133.719 30.2109 133.465 30.4805 133.176 30.6992C132.887 30.9258 132.582 31.1094 132.262 31.25C131.949 31.3906 131.633 31.4922 131.312 31.5547C130.992 31.625 130.688 31.6602 130.398 31.6602H124.902V28.6133H130.398C130.805 28.6133 131.109 28.5078 131.312 28.2969C131.516 28.0859 131.617 27.7812 131.617 27.3828V13.4961H134.664V27.3828ZM130.398 26.1641H124.902C124.465 26.1641 123.996 26.0898 123.496 25.9414C123.004 25.793 122.543 25.5508 122.113 25.2148C121.684 24.8711 121.328 24.4297 121.047 23.8906C120.766 23.3438 120.625 22.6758 120.625 21.8867V13.4961H123.672V21.8867C123.672 22.2852 123.777 22.5898 123.988 22.8008C124.199 23.0117 124.512 23.1172 124.926 23.1172H130.398V26.1641Z" fill="#444444"/>
<path d="M118.691 16.543H111.801V13.4961H118.691V16.543ZM118.691 11.0469H111.824C111.41 11.0469 111.098 11.1523 110.887 11.3633C110.676 11.5664 110.57 11.8672 110.57 12.2656V26.1641H107.523V12.2656C107.523 11.7422 107.59 11.2734 107.723 10.8594C107.855 10.4453 108.031 10.082 108.25 9.76953C108.477 9.44922 108.734 9.17969 109.023 8.96094C109.312 8.73438 109.613 8.55078 109.926 8.41016C110.246 8.26953 110.566 8.16797 110.887 8.10547C111.207 8.03516 111.512 8 111.801 8H118.691V11.0469Z" fill="#444444"/>
<path d="M104.547 10.8945H101.5V8.14062H104.547V10.8945ZM104.547 26.1641H101.5V13.4961H104.547V26.1641Z" fill="#444444"/>
<path d="M99.4375 16.543H92.582C92.168 16.543 91.8555 16.6484 91.6445 16.8594C91.4336 17.0625 91.3281 17.3633 91.3281 17.7617V26.1641H88.2812V17.7617C88.2812 17.2383 88.3477 16.7695 88.4805 16.3555C88.6133 15.9414 88.7891 15.5781 89.0078 15.2656C89.2344 14.9453 89.4922 14.6758 89.7812 14.457C90.0703 14.2305 90.3711 14.0469 90.6836 13.9062C91.0039 13.7656 91.3242 13.6641 91.6445 13.6016C91.9727 13.5312 92.2773 13.4961 92.5586 13.4961H99.4375V16.543Z" fill="#444444"/>
<path d="M85.4922 24.6289C85.4922 24.8477 85.4531 25.0508 85.375 25.2383C85.2969 25.4258 85.1875 25.5898 85.0469 25.7305C84.9141 25.8633 84.7539 25.9688 84.5664 26.0469C84.3867 26.125 84.1914 26.1641 83.9805 26.1641H77.0898C76.7148 26.1641 76.3125 26.1211 75.8828 26.0352C75.4609 25.9492 75.043 25.8125 74.6289 25.625C74.2148 25.4297 73.8125 25.1875 73.4219 24.8984C73.0391 24.6016 72.7031 24.2461 72.4141 23.832C72.125 23.4102 71.8906 22.9258 71.7109 22.3789C71.5391 21.832 71.4531 21.2148 71.4531 20.5273V13.4961H74.5V20.5273C74.5 20.9258 74.5664 21.2852 74.6992 21.6055C74.8398 21.918 75.0273 22.1875 75.2617 22.4141C75.4961 22.6406 75.7695 22.8164 76.082 22.9414C76.4023 23.0586 76.7461 23.1172 77.1133 23.1172H82.4453V13.4961H85.4922V24.6289Z" fill="#444444"/>
<path d="M69.0391 21.8867C69.0391 22.4102 68.9727 22.8828 68.8398 23.3047C68.707 23.7188 68.5312 24.0859 68.3125 24.4062C68.0938 24.7188 67.8398 24.9883 67.5508 25.2148C67.2617 25.4336 66.957 25.6133 66.6367 25.7539C66.3242 25.8945 66.0078 26 65.6875 26.0703C65.3672 26.1328 65.0625 26.1641 64.7734 26.1641H59.2773V23.1172H64.7734C65.1797 23.1172 65.4844 23.0117 65.6875 22.8008C65.8906 22.5898 65.9922 22.2852 65.9922 21.8867V17.7852C65.9922 17.3633 65.8867 17.0508 65.6758 16.8477C65.4727 16.6445 65.1719 16.543 64.7734 16.543H59.3008C58.8867 16.543 58.5742 16.6484 58.3633 16.8594C58.1523 17.0625 58.0469 17.3633 58.0469 17.7617V30.125H55V17.7617C55 17.2383 55.0664 16.7695 55.1992 16.3555C55.332 15.9414 55.5078 15.5781 55.7266 15.2656C55.9531 14.9453 56.2109 14.6758 56.5 14.457C56.7891 14.2305 57.0898 14.0469 57.4023 13.9062C57.7227 13.7656 58.043 13.6641 58.3633 13.6016C58.6914 13.5312 58.9961 13.4961 59.2773 13.4961H64.7734C65.2969 13.4961 65.7656 13.5625 66.1797 13.6953C66.5938 13.8281 66.957 14.0039 67.2695 14.2227C67.5898 14.4414 67.8594 14.6953 68.0781 14.9844C68.3047 15.2734 68.4883 15.5781 68.6289 15.8984C68.7695 16.2109 68.8711 16.5273 68.9336 16.8477C69.0039 17.168 69.0391 17.4727 69.0391 17.7617V21.8867Z" fill="#444444"/>
</svg>
